<?xml version="1.0" encoding="utf-8"?><svg viewBox="0 0 181 28" xmlns="http://www.w3.org/2000/svg" xmlns:xlink="http://www.w3.org/1999/xlink"><style>:root>svg{display:none}:root>svg:target{display:block}</style><svg fill="none" viewBox="0 0 16 16" id="icon-arrows" xmlns="http://www.w3.org/2000/svg"><path d="M1.146 7.646a.5.5 0 000 .708l2 2a.5.5 0 00.708-.708L2.707 8.5h10.586l-1.147 1.146a.5.5 0 00.708.708l2-2a.5.5 0 000-.708l-2-2a.5.5 0 00-.708.708L13.293 7.5H2.707l1.147-1.146a.5.5 0 10-.708-.708l-2 2z" fill="currentColor"/></svg><svg fill="none" viewBox="0 0 16 16" id="icon-aspect-ratio" xmlns="http://www.w3.org/2000/svg"><path d="M0 3.5A1.5 1.5 0 011.5 2h13A1.5 1.5 0 0116 3.5v9a1.5 1.5 0 01-1.5 1.5h-13A1.5 1.5 0 010 12.5v-9zM1.5 3a.5.5 0 00-.5.5v9a.5.5 0 00.5.5h13a.5.5 0 00.5-.5v-9a.5.5 0 00-.5-.5h-13z" fill="currentColor"/><path d="M2 4.5a.5.5 0 01.5-.5h3a.5.5 0 010 1H3v2.5a.5.5 0 01-1 0v-3zM14 11.5a.5.5 0 01-.5.5h-3a.5.5 0 010-1H13V8.5a.5.5 0 011 0v3z" fill="currentColor"/></svg><svg fill="none" viewBox="0 0 16 16" id="icon-aspect-ratio-fill" xmlns="http://www.w3.org/2000/svg"><path d="M0 12.5v-9A1.5 1.5 0 011.5 2h13A1.5 1.5 0 0116 3.5v9a1.5 1.5 0 01-1.5 1.5h-13A1.5 1.5 0 010 12.5zM2.5 4a.5.5 0 00-.5.5v3a.5.5 0 001 0V5h2.5a.5.5 0 000-1h-3zm11 8a.5.5 0 00.5-.5v-3a.5.5 0 00-1 0V11h-2.5a.5.5 0 000 1h3z" fill="currentColor"/></svg><svg fill="none" viewBox="0 0 16 16" id="icon-brush" xmlns="http://www.w3.org/2000/svg"><path d="M15.825.12a.5.5 0 01.132.584c-1.53 3.43-4.743 8.17-7.095 10.64a6.067 6.067 0 01-2.373 1.534c-.018.227-.06.538-.16.868-.201.659-.667 1.479-1.708 1.74a8.118 8.118 0 01-3.078.132 3.659 3.659 0 01-.562-.135 1.382 1.382 0 01-.466-.247.714.714 0 01-.204-.288.622.622 0 01.004-.443c.095-.245.316-.38.461-.452.394-.197.625-.453.867-.826.095-.144.184-.297.287-.472l.117-.198c.151-.255.326-.54.546-.848.528-.739 1.201-.925 1.746-.896.126.007.243.025.348.048.062-.172.142-.38.238-.608.261-.619.658-1.419 1.187-2.069 2.176-2.67 6.18-6.206 9.117-8.104a.5.5 0 01.596.04zM4.705 11.912a1.23 1.23 0 00-.419-.1c-.246-.013-.573.05-.879.479-.197.275-.355.532-.5.777l-.105.177c-.106.181-.213.362-.32.528a3.39 3.39 0 01-.76.861c.69.112 1.736.111 2.657-.12.559-.139.843-.569.993-1.06a3.122 3.122 0 00.126-.75l-.793-.792zm1.44.026c.12-.04.277-.1.458-.183a5.068 5.068 0 001.535-1.1c1.9-1.996 4.412-5.57 6.052-8.631-2.59 1.927-5.566 4.66-7.302 6.792-.442.543-.795 1.243-1.042 1.826-.121.288-.214.54-.275.72v.001l.575.575zm-4.973 3.04l.007-.005a.031.031 0 01-.007.004zm3.582-3.043l.002.001h-.002z" fill="currentColor"/></svg><svg fill="none" viewBox="0 0 16 16" id="icon-cash-coin" xmlns="http://www.w3.org/2000/svg"><path fill-rule="evenodd" clip-rule="evenodd" d="M11 15a4 4 0 100-8 4 4 0 000 8zm5-4a5 5 0 11-10 0 5 5 0 0110 0z" fill="currentColor"/><path d="M9.438 11.944c.047.596.518 1.06 1.363 1.116v.44h.375v-.443c.875-.061 1.386-.529 1.386-1.207 0-.618-.39-.936-1.09-1.1l-.296-.07V9.48c.376.043.614.248.671.532h.658c-.047-.575-.54-1.024-1.329-1.073V8.5h-.375v.45c-.747.073-1.255.522-1.255 1.158 0 .562.378.92 1.007 1.066l.248.061v1.272c-.384-.058-.639-.27-.696-.563h-.668zm1.36-1.354c-.369-.085-.569-.26-.569-.522 0-.294.216-.514.572-.578v1.1h-.003zm.432.746c.449.104.655.272.655.569 0 .339-.257.571-.709.614v-1.195l.054.012z" fill="currentColor"/><path d="M1 0a1 1 0 00-1 1v8a1 1 0 001 1h4.083c.058-.344.145-.678.258-1H3a2 2 0 00-2-2V3a2 2 0 002-2h10a2 2 0 002 2v3.528c.38.34.717.728 1 1.154V1a1 1 0 00-1-1H1z" fill="currentColor"/><path d="M9.998 5.083L10 5a2 2 0 10-3.132 1.65 5.982 5.982 0 013.13-1.567z" fill="currentColor"/></svg><svg fill="none" viewBox="0 0 16 16" id="icon-chat" xmlns="http://www.w3.org/2000/svg"><path d="M14 1a1 1 0 011 1v8a1 1 0 01-1 1h-2.5a2 2 0 00-1.6.8L8 14.333 6.1 11.8a2 2 0 00-1.6-.8H2a1 1 0 01-1-1V2a1 1 0 011-1h12zM2 0a2 2 0 00-2 2v8a2 2 0 002 2h2.5a1 1 0 01.8.4l1.9 2.533a1 1 0 001.6 0l1.9-2.533a1 1 0 01.8-.4H14a2 2 0 002-2V2a2 2 0 00-2-2H2z" fill="currentColor"/><path d="M3 3.5a.5.5 0 01.5-.5h9a.5.5 0 010 1h-9a.5.5 0 01-.5-.5zM3 6a.5.5 0 01.5-.5h9a.5.5 0 010 1h-9A.5.5 0 013 6zm0 2.5a.5.5 0 01.5-.5h5a.5.5 0 010 1h-5a.5.5 0 01-.5-.5z" fill="currentColor"/></svg><svg fill="none" viewBox="0 0 16 16" id="icon-chat-fill" xmlns="http://www.w3.org/2000/svg"><path d="M0 2a2 2 0 012-2h12a2 2 0 012 2v8a2 2 0 01-2 2h-2.5a1 1 0 00-.8.4l-1.9 2.533a1 1 0 01-1.6 0L5.3 12.4a1 1 0 00-.8-.4H2a2 2 0 01-2-2V2zm3.5 1a.5.5 0 000 1h9a.5.5 0 000-1h-9zm0 2.5a.5.5 0 000 1h9a.5.5 0 000-1h-9zm0 2.5a.5.5 0 000 1h5a.5.5 0 000-1h-5z" fill="currentColor"/></svg><svg fill="none" viewBox="0 0 16 16" id="icon-chat-square" xmlns="http://www.w3.org/2000/svg"><path d="M14 1a1 1 0 011 1v8a1 1 0 01-1 1h-2.5a2 2 0 00-1.6.8L8 14.333 6.1 11.8a2 2 0 00-1.6-.8H2a1 1 0 01-1-1V2a1 1 0 011-1h12zM2 0a2 2 0 00-2 2v8a2 2 0 002 2h2.5a1 1 0 01.8.4l1.9 2.533a1 1 0 001.6 0l1.9-2.533a1 1 0 01.8-.4H14a2 2 0 002-2V2a2 2 0 00-2-2H2z" fill="currentColor"/></svg><svg fill="none" viewBox="0 0 16 16" id="icon-chat-square-fill" xmlns="http://www.w3.org/2000/svg"><path d="M2 0a2 2 0 00-2 2v8a2 2 0 002 2h2.5a1 1 0 01.8.4l1.9 2.533a1 1 0 001.6 0l1.9-2.533a1 1 0 01.8-.4H14a2 2 0 002-2V2a2 2 0 00-2-2H2z" fill="currentColor"/></svg><svg fill="none" viewBox="0 0 16 16" id="icon-check-circle-fill" xmlns="http://www.w3.org/2000/svg"><path d="M16 8A8 8 0 110 8a8 8 0 0116 0zm-3.97-3.03a.75.75 0 00-1.08.022L7.477 9.417 5.384 7.323a.75.75 0 00-1.06 1.06L6.97 11.03a.75.75 0 001.079-.02l3.992-4.99a.75.75 0 00-.01-1.05z" fill="currentColor"/></svg><svg fill="none" viewBox="0 0 9 7" id="icon-check-radio" xmlns="http://www.w3.org/2000/svg"><path d="M2.73 6.33L.608 4.206A1 1 0 112.02 2.792L3.44 4.21 6.98.67a1 1 0 011.414 1.415L4.148 6.33c-.2.2-.464.297-.726.292a.997.997 0 01-.691-.292z" fill="#fff"/></svg><svg fill="none" viewBox="0 0 16 16" id="icon-close" xmlns="http://www.w3.org/2000/svg"><path d="M3.21 3.21a.714.714 0 011.01 0L8 6.99l3.78-3.78a.714.714 0 011.01 1.01L9.01 8l3.78 3.78a.714.714 0 01-1.01 1.01L8 9.01l-3.78 3.78a.714.714 0 01-1.01-1.01L6.99 8 3.21 4.22a.714.714 0 010-1.01z" fill="currentColor"/></svg><svg fill="none" viewBox="0 0 16 16" id="icon-emoji-frown" xmlns="http://www.w3.org/2000/svg"><path d="M8 15A7 7 0 118 1a7 7 0 010 14zm0 1A8 8 0 108 0a8 8 0 000 16z" fill="currentColor"/><path d="M4.285 12.433a.5.5 0 00.683-.183A3.498 3.498 0 018 10.5c1.295 0 2.426.703 3.032 1.75a.5.5 0 00.866-.5A4.498 4.498 0 008 9.5c-1.666 0-3.12.906-3.898 2.25a.5.5 0 00.183.683zM7 6.5C7 7.328 6.552 8 6 8s-1-.672-1-1.5S5.448 5 6 5s1 .672 1 1.5zM11 6.5c0 .828-.448 1.5-1 1.5s-1-.672-1-1.5S9.448 5 10 5s1 .672 1 1.5z" fill="currentColor"/></svg><svg fill="none" viewBox="0 0 16 16" id="icon-emoji-frown-fill" xmlns="http://www.w3.org/2000/svg"><path d="M8 16A8 8 0 108 0a8 8 0 000 16zM7 6.5C7 7.328 6.552 8 6 8s-1-.672-1-1.5S5.448 5 6 5s1 .672 1 1.5zm-2.715 5.933a.5.5 0 01-.183-.683A4.498 4.498 0 018 9.5c1.666 0 3.12.906 3.898 2.25a.5.5 0 01-.866.5A3.498 3.498 0 008 10.5a3.498 3.498 0 00-3.032 1.75.5.5 0 01-.683.183zM10 8c-.552 0-1-.672-1-1.5S9.448 5 10 5s1 .672 1 1.5S10.552 8 10 8z" fill="currentColor"/></svg><svg fill="none" viewBox="0 0 16 16" id="icon-emoji-laughing" xmlns="http://www.w3.org/2000/svg"><path d="M8 15A7 7 0 118 1a7 7 0 010 14zm0 1A8 8 0 108 0a8 8 0 000 16z" fill="currentColor"/><path d="M12.331 9.5a1 1 0 010 1A4.998 4.998 0 018 13a4.998 4.998 0 01-4.33-2.5A1 1 0 014.535 9h6.93a1 1 0 01.866.5zM7 6.5c0 .828-.448 0-1 0s-1 .828-1 0S5.448 5 6 5s1 .672 1 1.5zM11 6.5c0 .828-.448 0-1 0s-1 .828-1 0S9.448 5 10 5s1 .672 1 1.5z" fill="currentColor"/></svg><svg fill="none" viewBox="0 0 16 16" id="icon-emoji-sunglasses" xmlns="http://www.w3.org/2000/svg"><path d="M4.968 9.75a.5.5 0 10-.866.5A4.498 4.498 0 008 12.5c1.666 0 3.12-.906 3.898-2.25a.5.5 0 10-.866-.5A3.498 3.498 0 018 11.5a3.498 3.498 0 01-3.032-1.75zM7 5.116V5a1 1 0 00-1-1H3.28a1 1 0 00-.97 1.243l.311 1.242A2 2 0 004.561 8H5a2 2 0 001.994-1.839A2.99 2.99 0 018 6c.393 0 .74.064 1.006.161A2 2 0 0011 8h.438a2 2 0 001.94-1.515l.311-1.242A1 1 0 0012.72 4H10a1 1 0 00-1 1v.116A4.22 4.22 0 008 5c-.35 0-.69.04-1 .116z" fill="currentColor"/><path d="M16 8A8 8 0 110 8a8 8 0 0116 0zm-1 0A7 7 0 101 8a7 7 0 0014 0z" fill="currentColor"/></svg><svg fill="none" viewBox="0 0 16 16" id="icon-emoji-sunglasses-fill" xmlns="http://www.w3.org/2000/svg"><path d="M8 16A8 8 0 108 0a8 8 0 000 16zM2.31 5.243A1 1 0 013.28 4H6a1 1 0 011 1v.116A4.22 4.22 0 018 5c.35 0 .69.04 1 .116V5a1 1 0 011-1h2.72a1 1 0 01.97 1.243l-.311 1.242A2 2 0 0111.439 8H11a2 2 0 01-1.994-1.839A2.99 2.99 0 008 6c-.393 0-.74.064-1.006.161A2 2 0 015 8h-.438a2 2 0 01-1.94-1.515L2.31 5.243zM4.969 9.75A3.498 3.498 0 008 11.5a3.498 3.498 0 003.032-1.75.5.5 0 11.866.5A4.498 4.498 0 018 12.5a4.498 4.498 0 01-3.898-2.25.5.5 0 01.866-.5z" fill="currentColor"/></svg><svg fill="none" viewBox="0 0 16 16" id="icon-exclamation-circle" xmlns="http://www.w3.org/2000/svg"><path d="M8 15A7 7 0 118 1a7 7 0 010 14zm0 1A8 8 0 108 0a8 8 0 000 16z" fill="currentColor"/><path d="M7.002 11a1 1 0 112 0 1 1 0 01-2 0zM7.1 4.995a.905.905 0 111.8 0l-.35 3.507a.552.552 0 01-1.1 0L7.1 4.995z" fill="currentColor"/></svg><svg fill="none" viewBox="0 0 16 16" id="icon-exclamation-circle-fill" xmlns="http://www.w3.org/2000/svg"><path d="M16 8A8 8 0 110 8a8 8 0 0116 0zM8 4a.905.905 0 00-.9.995l.35 3.507a.552.552 0 001.1 0l.35-3.507A.905.905 0 008 4zm.002 6a1 1 0 100 2 1 1 0 000-2z" fill="currentColor"/></svg><svg fill="none" viewBox="0 0 16 16" id="icon-eye" xmlns="http://www.w3.org/2000/svg"><path d="M16 8s-3-5.5-8-5.5S0 8 0 8s3 5.5 8 5.5S16 8 16 8zM1.173 8a13.133 13.133 0 011.66-2.043C4.12 4.668 5.88 3.5 8 3.5c2.12 0 3.879 1.168 5.168 2.457A13.133 13.133 0 0114.828 8c-.058.087-.122.183-.195.288-.335.48-.83 1.12-1.465 1.755C11.879 11.332 10.119 12.5 8 12.5c-2.12 0-3.879-1.168-5.168-2.457A13.134 13.134 0 011.172 8z" fill="#000"/><path d="M8 5.5a2.5 2.5 0 100 5 2.5 2.5 0 000-5zM4.5 8a3.5 3.5 0 117 0 3.5 3.5 0 01-7 0z" fill="#000"/></svg><svg fill="none" viewBox="0 0 16 16" id="icon-eye-slash-fill" xmlns="http://www.w3.org/2000/svg"><path d="M10.79 12.912l-1.614-1.615a3.5 3.5 0 01-4.474-4.474l-2.06-2.06C.938 6.278 0 8 0 8s3 5.5 8 5.5a7.027 7.027 0 002.79-.588zM5.21 3.088A7.028 7.028 0 018 2.5c5 0 8 5.5 8 5.5s-.939 1.721-2.641 3.238l-2.062-2.062a3.5 3.5 0 00-4.474-4.474L5.21 3.088z" fill="#000"/><path d="M5.525 7.646a2.5 2.5 0 002.829 2.829l-2.83-2.829zM10.475 8.354l-2.829-2.83a2.5 2.5 0 012.829 2.829zM13.646 14.354l-12-12 .708-.708 12 12-.708.707z" fill="#000"/></svg><svg fill="none" viewBox="0 0 16 16" id="icon-fullscreen" xmlns="http://www.w3.org/2000/svg"><path d="M1.5 1a.5.5 0 00-.5.5v4a.5.5 0 01-1 0v-4A1.5 1.5 0 011.5 0h4a.5.5 0 010 1h-4zM10 .5a.5.5 0 01.5-.5h4A1.5 1.5 0 0116 1.5v4a.5.5 0 01-1 0v-4a.5.5 0 00-.5-.5h-4a.5.5 0 01-.5-.5zM.5 10a.5.5 0 01.5.5v4a.5.5 0 00.5.5h4a.5.5 0 010 1h-4A1.5 1.5 0 010 14.5v-4a.5.5 0 01.5-.5zm15 0a.5.5 0 01.5.5v4a1.5 1.5 0 01-1.5 1.5h-4a.5.5 0 010-1h4a.5.5 0 00.5-.5v-4a.5.5 0 01.5-.5z" fill="currentColor"/></svg><svg fill="none" viewBox="0 0 16 16" id="icon-grid" xmlns="http://www.w3.org/2000/svg"><path d="M1 2.5A1.5 1.5 0 012.5 1h3A1.5 1.5 0 017 2.5v3A1.5 1.5 0 015.5 7h-3A1.5 1.5 0 011 5.5v-3zM2.5 2a.5.5 0 00-.5.5v3a.5.5 0 00.5.5h3a.5.5 0 00.5-.5v-3a.5.5 0 00-.5-.5h-3zm6.5.5A1.5 1.5 0 0110.5 1h3A1.5 1.5 0 0115 2.5v3A1.5 1.5 0 0113.5 7h-3A1.5 1.5 0 019 5.5v-3zm1.5-.5a.5.5 0 00-.5.5v3a.5.5 0 00.5.5h3a.5.5 0 00.5-.5v-3a.5.5 0 00-.5-.5h-3zM1 10.5A1.5 1.5 0 012.5 9h3A1.5 1.5 0 017 10.5v3A1.5 1.5 0 015.5 15h-3A1.5 1.5 0 011 13.5v-3zm1.5-.5a.5.5 0 00-.5.5v3a.5.5 0 00.5.5h3a.5.5 0 00.5-.5v-3a.5.5 0 00-.5-.5h-3zm6.5.5A1.5 1.5 0 0110.5 9h3a1.5 1.5 0 011.5 1.5v3a1.5 1.5 0 01-1.5 1.5h-3A1.5 1.5 0 019 13.5v-3zm1.5-.5a.5.5 0 00-.5.5v3a.5.5 0 00.5.5h3a.5.5 0 00.5-.5v-3a.5.5 0 00-.5-.5h-3z" fill="currentColor"/></svg><svg fill="none" viewBox="0 0 16 16" id="icon-grid-fill" xmlns="http://www.w3.org/2000/svg"><path d="M1 2.5A1.5 1.5 0 012.5 1h3A1.5 1.5 0 017 2.5v3A1.5 1.5 0 015.5 7h-3A1.5 1.5 0 011 5.5v-3zm8 0A1.5 1.5 0 0110.5 1h3A1.5 1.5 0 0115 2.5v3A1.5 1.5 0 0113.5 7h-3A1.5 1.5 0 019 5.5v-3zm-8 8A1.5 1.5 0 012.5 9h3A1.5 1.5 0 017 10.5v3A1.5 1.5 0 015.5 15h-3A1.5 1.5 0 011 13.5v-3zm8 0A1.5 1.5 0 0110.5 9h3a1.5 1.5 0 011.5 1.5v3a1.5 1.5 0 01-1.5 1.5h-3A1.5 1.5 0 019 13.5v-3z" fill="currentColor"/></svg><svg fill="none" viewBox="0 0 16 16" id="icon-info-circle" xmlns="http://www.w3.org/2000/svg"><path d="M8 15A7 7 0 118 1a7 7 0 010 14zm0 1A8 8 0 108 0a8 8 0 000 16z" fill="currentColor"/><path d="M8.93 6.588l-2.29.287-.082.38.45.083c.294.07.352.176.288.469l-.738 3.468c-.194.897.105 1.319.808 1.319.545 0 1.178-.252 1.465-.598l.088-.416c-.2.176-.492.246-.686.246-.275 0-.375-.193-.304-.533L8.93 6.588zM9 4.5a1 1 0 11-2 0 1 1 0 012 0z" fill="currentColor"/></svg><svg fill="none" viewBox="0 0 16 16" id="icon-info-circle-fill" xmlns="http://www.w3.org/2000/svg"><path d="M8 16A8 8 0 108 0a8 8 0 000 16zm.93-9.412L7.93 11.293c-.07.34.029.533.304.533.194 0 .487-.07.686-.246l-.088.416c-.287.346-.92.598-1.465.598-.703 0-1.002-.422-.808-1.319l.738-3.468c.064-.293.006-.399-.287-.47l-.451-.081.082-.381 2.29-.287zM8 5.5a1 1 0 110-2 1 1 0 010 2z" fill="currentColor"/></svg><svg fill="none" viewBox="0 0 16 16" id="icon-layout-sidebar-reverse" xmlns="http://www.w3.org/2000/svg"><path d="M16 3a2 2 0 00-2-2H2a2 2 0 00-2 2v10a2 2 0 002 2h12a2 2 0 002-2V3zm-5-1v12H2a1 1 0 01-1-1V3a1 1 0 011-1h9zm1 0h2a1 1 0 011 1v10a1 1 0 01-1 1h-2V2z" fill="#000"/></svg><svg fill="none" viewBox="0 0 24 24" id="icon-logo" xmlns="http://www.w3.org/2000/svg"><path fill-rule="evenodd" clip-rule="evenodd" d="M11.96 1.64A2.88 2.88 0 009.36 0H3.12A2.88 2.88 0 00.24 2.88v6.24A2.881 2.881 0 003.12 12V5.52A2.88 2.88 0 016 2.64h6.23a2.865 2.865 0 00-.27-1zm-1.187 0A1.876 1.876 0 009.36 1H3.12a1.88 1.88 0 00-1.88 1.88v6.24c0 .67.352 1.26.88 1.592V5.52A3.88 3.88 0 016 1.64h4.773zM3.12 18.72V14.4a2.9 2.9 0 00-1 .178A2.881 2.881 0 00.24 17.28v3.84A2.88 2.88 0 003.12 24h3.84a2.879 2.879 0 002.84-2.4H6a2.88 2.88 0 01-2.88-2.88zm5 3.88H6a3.88 3.88 0 01-3.88-3.88v-3.032c-.528.332-.88.921-.88 1.592v3.84A1.88 1.88 0 003.12 23h3.84c.437 0 .84-.15 1.16-.4zm6.32-20.96c-.147.307-.24.644-.27 1h4.31a2.88 2.88 0 012.88 2.88v4.04a2.878 2.878 0 002.4-2.84V2.88A2.88 2.88 0 0020.88 0h-3.84a2.88 2.88 0 00-2.6 1.64zm7.92 6.24c.25-.32.4-.723.4-1.16V2.88A1.88 1.88 0 0020.88 1h-3.84c-.563 0-1.068.248-1.413.64h2.853a3.88 3.88 0 013.88 3.88v2.36zm0 4.529a2.86 2.86 0 00-1-.37v6.681a2.88 2.88 0 01-2.88 2.88H11.8a2.878 2.878 0 002.84 2.4h6.24a2.88 2.88 0 002.88-2.88v-6.24c0-1.05-.561-1.968-1.4-2.471zM13.48 22.6c.32.25.723.4 1.16.4h6.24a1.88 1.88 0 001.88-1.88v-6.24c0-.437-.15-.84-.4-1.16v5a3.88 3.88 0 01-3.88 3.88h-5zm-7.92-5.32a1.88 1.88 0 001.88 1.88h9.6a1.88 1.88 0 001.88-1.88V6.96a1.88 1.88 0 00-1.88-1.88h-9.6a1.88 1.88 0 00-1.88 1.88v10.32zm1.88 2.88a2.88 2.88 0 01-2.88-2.88V6.96a2.88 2.88 0 012.88-2.88h9.6a2.88 2.88 0 012.88 2.88v10.32a2.88 2.88 0 01-2.88 2.88h-9.6z" fill="currentColor"/></svg><svg fill="none" viewBox="0 0 24 24" id="icon-logo-fill" xmlns="http://www.w3.org/2000/svg"><path d="M4.56 17.28a2.88 2.88 0 002.88 2.88h9.6a2.88 2.88 0 002.88-2.88V6.96a2.88 2.88 0 00-2.88-2.88h-9.6a2.88 2.88 0 00-2.88 2.88v10.32z" fill="currentColor"/><path fill-rule="evenodd" clip-rule="evenodd" d="M.24 2.88A2.88 2.88 0 013.12 0h6.24a2.88 2.88 0 012.87 2.64H6a2.88 2.88 0 00-2.88 2.88V12A2.88 2.88 0 01.24 9.12V2.88zM3.12 14.4a2.88 2.88 0 00-2.88 2.88v3.84A2.88 2.88 0 003.12 24h3.84a2.88 2.88 0 002.84-2.4H6a2.88 2.88 0 01-2.88-2.88V14.4zm8.68 7.2a2.88 2.88 0 002.84 2.4h6.24a2.88 2.88 0 002.88-2.88v-6.24a2.88 2.88 0 00-2.4-2.84v6.68a2.88 2.88 0 01-2.88 2.88H11.8zm9.56-12.04a2.88 2.88 0 002.4-2.84V2.88A2.88 2.88 0 0020.88 0h-3.84a2.88 2.88 0 00-2.87 2.64h4.31a2.88 2.88 0 012.88 2.88v4.04z" fill="currentColor"/></svg><svg fill="none" viewBox="0 0 8 10" id="icon-play-fill" xmlns="http://www.w3.org/2000/svg"><path d="M7.596 5.697L1.233 9.389C.693 9.702 0 9.322 0 8.692V1.308C0 .678.693.298 1.233.612l6.363 3.692a.802.802 0 010 1.393z" fill="currentColor"/></svg><svg fill="none" viewBox="0 0 16 16" id="icon-plus" xmlns="http://www.w3.org/2000/svg"><path d="M8 0a1 1 0 011 1v6h6a1 1 0 110 2H9v6a1 1 0 11-2 0V9H1a1 1 0 010-2h6V1a1 1 0 011-1z" fill="currentColor"/></svg><svg fill="none" viewBox="0 0 16 16" id="icon-puzzle" xmlns="http://www.w3.org/2000/svg"><path d="M3.112 3.645A1.5 1.5 0 014.605 2H7a.5.5 0 01.5.5v.382c0 .696-.497 1.182-.872 1.469a.459.459 0 00-.115.118.113.113 0 00-.012.025L6.5 4.5v.003l.003.01c.004.01.014.028.036.053a.86.86 0 00.27.194C7.09 4.9 7.51 5 8 5c.492 0 .912-.1 1.19-.24a.86.86 0 00.271-.194.213.213 0 00.039-.063V4.5L9.5 4.494a.112.112 0 00-.012-.025.459.459 0 00-.115-.118c-.375-.287-.872-.773-.872-1.469V2.5A.5.5 0 019 2h2.395a1.5 1.5 0 011.493 1.645L12.645 6.5h.237c.195 0 .42-.147.675-.48.21-.274.528-.52.943-.52.568 0 .947.447 1.154.862C15.877 6.807 16 7.387 16 8s-.123 1.193-.346 1.638c-.207.415-.586.862-1.154.862-.415 0-.733-.246-.943-.52-.255-.333-.48-.48-.675-.48h-.237l.243 2.855A1.5 1.5 0 0111.395 14H9a.5.5 0 01-.5-.5v-.382c0-.696.497-1.182.872-1.469a.459.459 0 00.115-.118.113.113 0 00.012-.025L9.5 11.5v-.003a.214.214 0 00-.039-.064.859.859 0 00-.27-.193C8.91 11.1 8.49 11 8 11c-.491 0-.912.1-1.19.24a.859.859 0 00-.271.194.214.214 0 00-.039.063v.003l.001.006a.113.113 0 00.012.025c.016.027.05.068.115.118.375.287.872.773.872 1.469v.382a.5.5 0 01-.5.5H4.605a1.5 1.5 0 01-1.493-1.645L3.356 9.5h-.238c-.195 0-.42.147-.675.48-.21.274-.528.52-.943.52-.568 0-.947-.447-1.154-.862C.123 9.193 0 8.613 0 8s.123-1.193.346-1.638C.553 5.947.932 5.5 1.5 5.5c.415 0 .733.246.943.52.255.333.48.48.675.48h.238l-.244-2.855zM4.605 3a.5.5 0 00-.498.55l.001.007.29 3.4A.5.5 0 013.9 7.5h-.782c-.696 0-1.182-.497-1.469-.872a.459.459 0 00-.118-.115.112.112 0 00-.025-.012L1.5 6.5h-.003a.213.213 0 00-.064.039.86.86 0 00-.193.27C1.1 7.09 1 7.51 1 8c0 .491.1.912.24 1.19.07.14.14.225.194.271a.213.213 0 00.063.039H1.5l.006-.001a.112.112 0 00.025-.012.459.459 0 00.118-.115c.287-.375.773-.872 1.469-.872H3.9a.5.5 0 01.498.542l-.29 3.408a.5.5 0 00.497.55h1.878c-.048-.166-.195-.352-.463-.557-.274-.21-.52-.528-.52-.943 0-.568.447-.947.862-1.154C6.807 10.123 7.387 10 8 10s1.193.123 1.638.346c.415.207.862.586.862 1.154 0 .415-.246.733-.52.943-.268.205-.415.39-.463.557h1.878a.5.5 0 00.498-.55l-.001-.007-.29-3.4A.5.5 0 0112.1 8.5h.782c.696 0 1.182.497 1.469.872.05.065.091.099.118.115.013.008.021.01.025.012a.02.02 0 00.006.001h.003a.214.214 0 00.064-.039.86.86 0 00.193-.27c.14-.28.24-.7.24-1.191 0-.492-.1-.912-.24-1.19a.86.86 0 00-.194-.271.215.215 0 00-.063-.039H14.5l-.006.001a.113.113 0 00-.025.012.459.459 0 00-.118.115c-.287.375-.773.872-1.469.872H12.1a.5.5 0 01-.498-.543l.29-3.407a.5.5 0 00-.497-.55H9.517c.048.166.195.352.463.557.274.21.52.528.52.943 0 .568-.447.947-.862 1.154C9.193 5.877 8.613 6 8 6s-1.193-.123-1.638-.346C5.947 5.447 5.5 5.068 5.5 4.5c0-.415.246-.733.52-.943.268-.205.415-.39.463-.557H4.605z" fill="currentColor"/></svg><svg fill="none" viewBox="0 0 16 16" id="icon-puzzle-fill" xmlns="http://www.w3.org/2000/svg"><path d="M3.112 3.645A1.5 1.5 0 014.605 2H7a.5.5 0 01.5.5v.382c0 .696-.497 1.182-.872 1.469a.459.459 0 00-.115.118.113.113 0 00-.012.025L6.5 4.5v.003l.003.01c.004.01.014.028.036.053a.86.86 0 00.27.194C7.09 4.9 7.51 5 8 5c.492 0 .912-.1 1.19-.24a.86.86 0 00.271-.194.213.213 0 00.036-.054l.003-.01V4.5L9.5 4.494a.112.112 0 00-.012-.025.459.459 0 00-.115-.118c-.375-.287-.872-.773-.872-1.469V2.5A.5.5 0 019 2h2.395a1.5 1.5 0 011.493 1.645L12.645 6.5h.237c.195 0 .42-.147.675-.48.21-.274.528-.52.943-.52.568 0 .947.447 1.154.862C15.877 6.807 16 7.387 16 8s-.123 1.193-.346 1.638c-.207.415-.586.862-1.154.862-.415 0-.733-.246-.943-.52-.255-.333-.48-.48-.675-.48h-.237l.243 2.855A1.5 1.5 0 0111.395 14H9a.5.5 0 01-.5-.5v-.382c0-.696.497-1.182.872-1.469a.459.459 0 00.115-.118.113.113 0 00.012-.025L9.5 11.5v-.003l-.003-.01a.214.214 0 00-.036-.053.859.859 0 00-.27-.194C8.91 11.1 8.49 11 8 11c-.491 0-.912.1-1.19.24a.859.859 0 00-.271.194.214.214 0 00-.036.054l-.003.01v.002l.001.006a.113.113 0 00.012.025c.016.027.05.068.115.118.375.287.872.773.872 1.469v.382a.5.5 0 01-.5.5H4.605a1.5 1.5 0 01-1.493-1.645L3.356 9.5h-.238c-.195 0-.42.147-.675.48-.21.274-.528.52-.943.52-.568 0-.947-.447-1.154-.862C.123 9.193 0 8.613 0 8s.123-1.193.346-1.638C.553 5.947.932 5.5 1.5 5.5c.415 0 .733.246.943.52.255.333.48.48.675.48h.238l-.244-2.855z" fill="currentColor"/></svg><svg fill="none" viewBox="0 0 16 16" id="icon-settings" xmlns="http://www.w3.org/2000/svg"><path d="M8 4.754a3.246 3.246 0 100 6.492 3.246 3.246 0 000-6.492zM5.754 8a2.246 2.246 0 114.492 0 2.246 2.246 0 01-4.492 0z" fill="currentColor"/><path d="M9.796 1.343c-.527-1.79-3.065-1.79-3.592 0l-.094.319a.873.873 0 01-1.255.52l-.292-.16c-1.64-.892-3.433.902-2.54 2.541l.159.292a.873.873 0 01-.52 1.255l-.319.094c-1.79.527-1.79 3.065 0 3.592l.319.094a.873.873 0 01.52 1.255l-.16.292c-.892 1.64.901 3.434 2.541 2.54l.292-.159a.873.873 0 011.255.52l.094.319c.527 1.79 3.065 1.79 3.592 0l.094-.319a.873.873 0 011.255-.52l.292.16c1.64.893 3.434-.902 2.54-2.541l-.159-.292a.873.873 0 01.52-1.255l.319-.094c1.79-.527 1.79-3.065 0-3.592l-.319-.094a.873.873 0 01-.52-1.255l.16-.292c.893-1.64-.902-3.433-2.541-2.54l-.292.159a.873.873 0 01-1.255-.52l-.094-.319zm-2.633.283c.246-.835 1.428-.835 1.674 0l.094.319a1.873 1.873 0 002.693 1.115l.291-.16c.764-.415 1.6.42 1.184 1.185l-.159.292a1.873 1.873 0 001.116 2.692l.318.094c.835.246.835 1.428 0 1.674l-.319.094a1.873 1.873 0 00-1.115 2.693l.16.291c.415.764-.42 1.6-1.185 1.184l-.291-.159a1.873 1.873 0 00-2.693 1.116l-.094.318c-.246.835-1.428.835-1.674 0l-.094-.319a1.873 1.873 0 00-2.692-1.115l-.292.16c-.764.415-1.6-.42-1.184-1.185l.159-.291A1.873 1.873 0 001.945 8.93l-.319-.094c-.835-.246-.835-1.428 0-1.674l.319-.094A1.873 1.873 0 003.06 4.377l-.16-.292c-.415-.764.42-1.6 1.185-1.184l.292.159c1.047.57 2.355.029 2.692-1.115l.094-.319z" fill="currentColor"/></svg><svg fill="none" viewBox="0 0 16 16" id="icon-settings-fill" xmlns="http://www.w3.org/2000/svg"><path d="M9.405 1.05c-.413-1.4-2.397-1.4-2.81 0l-.1.34a1.464 1.464 0 01-2.105.872l-.31-.17c-1.283-.698-2.686.705-1.987 1.987l.169.311c.446.82.023 1.841-.872 2.105l-.34.1c-1.4.413-1.4 2.397 0 2.81l.34.1a1.464 1.464 0 01.872 2.105l-.17.31c-.698 1.283.705 2.686 1.987 1.987l.311-.169a1.464 1.464 0 012.105.872l.1.34c.413 1.4 2.397 1.4 2.81 0l.1-.34a1.464 1.464 0 012.105-.872l.31.17c1.283.698 2.686-.705 1.987-1.987l-.169-.311a1.464 1.464 0 01.872-2.105l.34-.1c1.4-.413 1.4-2.397 0-2.81l-.34-.1a1.464 1.464 0 01-.872-2.105l.17-.31c.698-1.283-.705-2.686-1.987-1.987l-.311.169a1.464 1.464 0 01-2.105-.872l-.1-.34zM8 10.93A2.929 2.929 0 118 5.07a2.929 2.929 0 010 5.858z" fill="currentColor"/></svg><svg fill="none" viewBox="0 0 10 10" id="icon-switch-off" xmlns="http://www.w3.org/2000/svg"><path d="M4 1a1 1 0 012 0v8a1 1 0 01-2 0V1z" fill="currentColor"/></svg><svg fill="none" viewBox="0 0 10 10" id="icon-switch-on" xmlns="http://www.w3.org/2000/svg"><path fill-rule="evenodd" clip-rule="evenodd" d="M5 10A5 5 0 105 0a5 5 0 000 10zm0-2a3 3 0 100-6 3 3 0 000 6z" fill="currentColor"/></svg><svg fill="none" viewBox="0 0 16 16" id="icon-theme" xmlns="http://www.w3.org/2000/svg"><path d="M8 5a1.5 1.5 0 100-3 1.5 1.5 0 000 3zM12 8a1.5 1.5 0 100-3 1.5 1.5 0 000 3zM5.5 7a1.5 1.5 0 11-3 0 1.5 1.5 0 013 0zM6 13a1.5 1.5 0 100-3 1.5 1.5 0 000 3z" fill="currentColor"/><path d="M16 8c0 3.15-1.866 2.585-3.567 2.07C11.42 9.763 10.465 9.473 10 10c-.603.683-.475 1.819-.351 2.92C9.826 14.495 9.996 16 8 16a8 8 0 118-8zm-8 7c.611 0 .654-.171.655-.176.078-.146.124-.464.07-1.119-.014-.168-.037-.37-.061-.591-.052-.464-.112-1.005-.118-1.462-.01-.707.083-1.61.704-2.314.369-.417.845-.578 1.272-.618.404-.038.812.026 1.16.104.343.077.702.186 1.025.284l.028.008c.346.105.658.199.953.266.653.148.904.083.991.024C14.717 9.38 15 9.161 15 8a7 7 0 10-7 7z" fill="currentColor"/></svg><svg fill="none" viewBox="0 0 16 16" id="icon-theme-fill" xmlns="http://www.w3.org/2000/svg"><path d="M12.433 10.07C14.133 10.585 16 11.15 16 8a8 8 0 10-8 8c1.996 0 1.826-1.504 1.649-3.08-.124-1.101-.252-2.237.351-2.92.465-.527 1.42-.237 2.433.07zM8 5a1.5 1.5 0 110-3 1.5 1.5 0 010 3zm4.5 3a1.5 1.5 0 110-3 1.5 1.5 0 010 3zM5 6.5a1.5 1.5 0 11-3 0 1.5 1.5 0 013 0zm.5 6.5a1.5 1.5 0 110-3 1.5 1.5 0 010 3z" fill="currentColor"/></svg><svg fill="none" viewBox="0 0 16 16" id="icon-twitch" xmlns="http://www.w3.org/2000/svg"><path d="M3.857 0L1 2.857v10.286h3.429V16l2.857-2.857H9.57L14.714 8V0H3.857zm9.714 7.429l-2.285 2.285H9l-2 2v-2H4.429V1.143h9.142v6.286z" fill="currentColor"/><path d="M11.857 3.143h-1.143V6.57h1.143V3.143zM8.714 3.143H7.571V6.57h1.143V3.143z" fill="currentColor"/></svg><svg fill="none" viewBox="0 0 16 16" id="icon-window" xmlns="http://www.w3.org/2000/svg"><path d="M2.5 4a.5.5 0 100-1 .5.5 0 000 1zM4.5 3.5a.5.5 0 11-1 0 .5.5 0 011 0zM5.5 4a.5.5 0 100-1 .5.5 0 000 1z" fill="currentColor"/><path d="M2 1a2 2 0 00-2 2v10a2 2 0 002 2h12a2 2 0 002-2V3a2 2 0 00-2-2H2zm13 2v2H1V3a1 1 0 011-1h12a1 1 0 011 1zM2 14a1 1 0 01-1-1V6h14v7a1 1 0 01-1 1H2z" fill="currentColor"/></svg><svg fill="none" viewBox="0 0 16 16" id="icon-window-sidebar" xmlns="http://www.w3.org/2000/svg"><path d="M2.5 4a.5.5 0 100-1 .5.5 0 000 1zM4.5 3.5a.5.5 0 11-1 0 .5.5 0 011 0zM5.5 4a.5.5 0 100-1 .5.5 0 000 1z" fill="currentColor"/><path d="M2 1a2 2 0 00-2 2v10a2 2 0 002 2h12a2 2 0 002-2V3a2 2 0 00-2-2H2zm12 1a1 1 0 011 1v2H1V3a1 1 0 011-1h12zM1 13V6h4v8H2a1 1 0 01-1-1zm5 1V6h9v7a1 1 0 01-1 1H6z" fill="currentColor"/></svg><svg fill="none" viewBox="0 0 16 16" id="icon-x-circle-fill" xmlns="http://www.w3.org/2000/svg"><path d="M16 8A8 8 0 110 8a8 8 0 0116 0zM5.354 4.646a.5.5 0 10-.708.708L7.293 8l-2.647 2.646a.5.5 0 00.708.708L8 8.707l2.646 2.647a.5.5 0 00.708-.708L8.707 8l2.647-2.646a.5.5 0 00-.708-.708L8 7.293 5.354 4.646z" fill="currentColor"/></svg><svg fill="none" viewBox="0 0 181 28" id="logo" xmlns="http://www.w3.org/2000/svg"><path d="M5.154 20.16a3.36 3.36 0 003.36 3.36h11.2a3.36 3.36 0 003.36-3.36V8.12a3.36 3.36 0 00-3.36-3.36h-11.2a3.36 3.36 0 00-3.36 3.36v12.04z" fill="currentColor"/><path fill-rule="evenodd" clip-rule="evenodd" d="M.114 3.36A3.36 3.36 0 013.474 0h7.28a3.36 3.36 0 013.348 3.08H6.834a3.36 3.36 0 00-3.36 3.36V14a3.36 3.36 0 01-3.36-3.36V3.36zm3.36 13.44a3.36 3.36 0 00-3.36 3.36v4.48A3.36 3.36 0 003.474 28h4.48a3.36 3.36 0 003.313-2.8H6.834a3.36 3.36 0 01-3.36-3.36V16.8zM13.6 25.2a3.361 3.361 0 003.314 2.8h7.28a3.36 3.36 0 003.36-3.36v-7.28a3.36 3.36 0 00-2.8-3.313v7.793a3.36 3.36 0 01-3.36 3.36H13.6zm11.154-14.046a3.36 3.36 0 002.8-3.314V3.36A3.36 3.36 0 0024.194 0h-4.48a3.36 3.36 0 00-3.349 3.08h5.029a3.36 3.36 0 013.36 3.36v4.713z" fill="currentColor"/><path d="M179.034 12.716v2.352h-6.552v3.36h7.632v2.424h-10.656V7.124h10.392v2.448h-7.368v3.144h6.552zM158.302 20.852l-6.048-13.728h3.24l4.362 10.172 4.422-10.172h3.048l-6.024 13.728h-3z" fill="currentColor"/><path fill-rule="evenodd" clip-rule="evenodd" d="M137.765 20.852l6.24-13.728h3l6.216 13.728h-3l-1.277-2.976h-6.938l-1.289 2.976h-2.952zm5.239-5.28h4.952l-2.465-5.743-2.487 5.743z" fill="currentColor"/><path d="M129.708 20.852L123.66 7.124h3.24l4.362 10.172 4.422-10.172h3.048l-6.024 13.728h-3zM105.966 20.852V7.124h2.592l5.215 8.584 5.129-8.584h2.592l.024 13.728h-2.88l-.022-8.445-4.202 6.909h-1.368l-4.2-6.699v8.235h-2.88zM86.55 12.716v2.352h-6.552v3.36h7.631v2.424H76.973V7.124h10.392v2.448h-7.367v3.144h6.551z" fill="currentColor"/><path fill-rule="evenodd" clip-rule="evenodd" d="M61.692 20.852V7.124h5.928c1.232 0 2.296.2 3.192.6.896.384 1.584.944 2.064 1.68.496.736.744 1.624.744 2.664 0 1.024-.248 1.904-.744 2.64-.491.753-1.202 1.323-2.128 1.707l3.136 4.437H70.62l-2.75-3.89c-1.05.022-2.103.002-3.154.002v3.888h-3.024zm8.088-6.912c-.528.432-1.32.648-2.376.648h-2.688V9.572h2.688c1.056 0 1.848.216 2.376.648.528.432.792 1.048.792 1.848s-.264 1.424-.792 1.872z" fill="currentColor"/><path d="M51.978 20.852V9.596h-4.512V7.124h12.048v2.472h-4.512v11.256h-3.024zM46.86 16.796c0 .864-.24 1.616-.72 2.256-.464.64-1.128 1.144-1.992 1.512-.864.352-1.92.528-3.168.528-1.072 0-2.128-.144-3.168-.432-1.024-.288-1.848-.664-2.472-1.128l1.128-2.352c.576.432 1.28.776 2.112 1.032.832.256 1.68.384 2.544.384 1.024 0 1.736-.152 2.136-.456.4-.304.6-.664.6-1.08 0-.384-.152-.688-.456-.912-.288-.224-.68-.4-1.176-.528a16.47 16.47 0 00-1.584-.384 34.07 34.07 0 01-1.728-.432 6.38 6.38 0 01-1.584-.672 3.519 3.519 0 01-1.176-1.152c-.288-.48-.432-1.088-.432-1.824 0-.848.24-1.592.72-2.232.48-.64 1.152-1.136 2.016-1.488.88-.352 1.912-.528 3.096-.528.848 0 1.696.096 2.544.288.864.176 1.616.472 2.256.888l-1.032 2.352a5.614 5.614 0 00-1.92-.816 8.182 8.182 0 00-1.944-.24c-.96 0-1.656.152-2.088.456-.416.304-.624.688-.624 1.152 0 .384.144.688.432.912.304.224.696.408 1.176.552.48.128 1.008.248 1.584.36.592.112 1.168.256 1.728.432a6.38 6.38 0 011.584.672c.496.272.888.64 1.176 1.104.288.464.432 1.056.432 1.776z" fill="currentColor"/><path fill-rule="evenodd" clip-rule="evenodd" d="M88.547 20.852l6.24-13.728h3l6.216 13.728h-3l-1.277-2.976h-6.939L91.5 20.852h-2.952zm5.238-5.28h4.952l-2.465-5.743-2.487 5.743z" fill="currentColor"/></svg><svg fill="none" viewBox="0 0 28 28" id="logo-mini" xmlns="http://www.w3.org/2000/svg"><path d="M5.04 20.16a3.36 3.36 0 003.36 3.36h11.2a3.36 3.36 0 003.36-3.36V8.12a3.36 3.36 0 00-3.36-3.36H8.4a3.36 3.36 0 00-3.36 3.36v12.04z" fill="currentColor"/><path fill-rule="evenodd" clip-rule="evenodd" d="M0 3.36A3.36 3.36 0 013.36 0h7.28a3.36 3.36 0 013.348 3.08H6.72a3.36 3.36 0 00-3.36 3.36V14A3.36 3.36 0 010 10.64V3.36zM3.36 16.8A3.36 3.36 0 000 20.16v4.48A3.36 3.36 0 003.36 28h4.48a3.36 3.36 0 003.313-2.8H6.72a3.36 3.36 0 01-3.36-3.36V16.8zm10.127 8.4A3.36 3.36 0 0016.8 28h7.28a3.36 3.36 0 003.36-3.36v-7.28a3.36 3.36 0 00-2.8-3.313v7.793a3.36 3.36 0 01-3.36 3.36h-7.794zM24.64 11.154a3.36 3.36 0 002.8-3.314V3.36A3.36 3.36 0 0024.08 0H19.6a3.36 3.36 0 00-3.349 3.08h5.029a3.36 3.36 0 013.36 3.36v4.713z" fill="currentColor"/></svg></svg>